<!-- Generated by IcoMoon.io -->
<svg version="1.1" xmlns="http://www.w3.org/2000/svg" width="35" height="32" viewBox="0 0 35 32">
<title>calendar</title>
<path d="M30.354 2.278h-0.93v-1.384c0-0.494-0.401-0.895-0.895-0.895s-0.895 0.401-0.895 0.895v0 1.384h-19.083v-1.384c0-0.494-0.4-0.895-0.895-0.895s-0.895 0.401-0.895 0.895v0 1.384h-2.23c-2.503 0-4.532 2.029-4.532 4.532v0 20.622c0 2.503 2.029 4.532 4.532 4.532v0h25.822c2.503 0 4.532-2.029 4.532-4.532v0-20.622c0-2.503-2.029-4.532-4.532-4.532v0zM4.532 4.067h2.183v1.395c0 0.494 0.401 0.895 0.895 0.895s0.895-0.401 0.895-0.895v0-1.395h19.083v1.395c0 0.494 0.401 0.895 0.895 0.895s0.895-0.401 0.895-0.895v0-1.395h0.93c1.515 0 2.743 1.228 2.743 2.743v0 0.847h-31.261v-0.847c0-1.515 1.228-2.743 2.743-2.743v0zM30.354 30.211h-25.822c-0 0-0 0-0 0-1.515 0-2.743-1.228-2.743-2.743 0-0.013 0-0.025 0-0.038l-0 0.002v-17.986h31.308v17.986c0 0.011 0 0.023 0 0.036 0 1.515-1.228 2.743-2.743 2.743-0 0-0 0-0 0v0z"></path>
<path d="M9.995 13.215h-4.771c-0.494 0-0.895 0.4-0.895 0.895s0.401 0.895 0.895 0.895v0h4.771c0.494 0 0.895-0.4 0.895-0.895s-0.4-0.895-0.895-0.895v0z"></path>
<path d="M29.722 13.215h-4.771c-0.494 0-0.895 0.4-0.895 0.895s0.401 0.895 0.895 0.895v0h4.771c0.494 0 0.895-0.4 0.895-0.895s-0.401-0.895-0.895-0.895v0z"></path>
<path d="M19.823 13.215h-4.771c-0.494 0-0.895 0.4-0.895 0.895s0.4 0.895 0.895 0.895v0h4.771c0.494 0 0.895-0.4 0.895-0.895s-0.401-0.895-0.895-0.895v0z"></path>
<path d="M9.995 18.988h-4.771c-0.494 0-0.895 0.401-0.895 0.895s0.401 0.895 0.895 0.895v0h4.771c0.494 0 0.895-0.401 0.895-0.895s-0.4-0.895-0.895-0.895v0z"></path>
<path d="M29.722 18.988h-4.771c-0.494 0-0.895 0.401-0.895 0.895s0.401 0.895 0.895 0.895v0h4.771c0.494 0 0.895-0.401 0.895-0.895s-0.401-0.895-0.895-0.895v0z"></path>
<path d="M19.823 18.988h-4.771c-0.494 0-0.895 0.401-0.895 0.895s0.4 0.895 0.895 0.895v0h4.771c0.494 0 0.895-0.401 0.895-0.895s-0.401-0.895-0.895-0.895v0z"></path>
<path d="M9.995 24.748h-4.771c-0.494 0-0.895 0.401-0.895 0.895s0.401 0.895 0.895 0.895v0h4.771c0.494 0 0.895-0.401 0.895-0.895s-0.4-0.895-0.895-0.895v0z"></path>
<path d="M29.722 24.748h-4.771c-0.494 0-0.895 0.401-0.895 0.895s0.401 0.895 0.895 0.895v0h4.771c0.494 0 0.895-0.401 0.895-0.895s-0.401-0.895-0.895-0.895v0z"></path>
<path d="M19.823 24.748h-4.771c-0.494 0-0.895 0.401-0.895 0.895s0.4 0.895 0.895 0.895v0h4.771c0.494 0 0.895-0.401 0.895-0.895s-0.401-0.895-0.895-0.895v0z"></path>
</svg>
