<!-- Generated by IcoMoon.io -->
<svg version="1.1" xmlns="http://www.w3.org/2000/svg" width="32" height="32" viewBox="0 0 32 32">
<title>drug</title>
<path d="M29.238 2.762c-1.708-1.704-4.066-2.758-6.67-2.758s-4.962 1.054-6.67 2.758l-13.135 13.135c-1.707 1.707-2.763 4.065-2.763 6.67 0 5.21 4.223 9.433 9.433 9.433 2.605 0 4.963-1.056 6.67-2.763l13.123-13.123c1.712-1.71 2.77-4.072 2.77-6.682 0-2.604-1.054-4.962-2.758-6.67l0 0zM14.824 27.959c-1.38 1.38-3.286 2.233-5.392 2.233-4.211 0-7.625-3.414-7.625-7.625 0-2.106 0.853-4.012 2.233-5.392l5.922-5.922 10.783 10.771zM22.061 20.722l-10.807-10.759 5.922-5.922c1.38-1.38 3.286-2.233 5.392-2.233 4.211 0 7.625 3.414 7.625 7.625 0 2.106-0.853 4.012-2.233 5.392v0z"></path>
<path d="M18.358 6.212c-0.163 0.164-0.265 0.39-0.265 0.639s0.101 0.476 0.265 0.639v0c0.166 0.16 0.39 0.26 0.638 0.265l0.001 0c0.25-0 0.476-0.102 0.639-0.265v0c0.64-0.731 1.575-1.19 2.618-1.19 0.961 0 1.831 0.39 2.46 1.021l0 0c0.164 0.163 0.39 0.265 0.639 0.265s0.476-0.101 0.639-0.265v0c0.166-0.162 0.27-0.389 0.27-0.639s-0.103-0.477-0.269-0.639l-0-0c-0.952-0.966-2.275-1.565-3.738-1.565-1.544 0-2.933 0.667-3.893 1.729l-0.004 0.005z"></path>
</svg>
