<!-- Generated by IcoMoon.io -->
<svg version="1.1" xmlns="http://www.w3.org/2000/svg" width="32" height="32" viewBox="0 0 32 32">
<title>edit</title>
<path d="M31.579 5.874l-5.558-5.558c-0.195-0.195-0.463-0.315-0.76-0.315s-0.566 0.12-0.76 0.315v0l-17.502 17.464c-0.137 0.137-0.237 0.31-0.285 0.504l-0.002 0.007-1.757 7.352c-0.019 0.075-0.029 0.161-0.029 0.249 0 0.594 0.482 1.076 1.076 1.077h0c0.089 0 0.175-0.011 0.257-0.032l-0.007 0.002 7.352-1.757c0.201-0.049 0.375-0.149 0.511-0.287l0-0 17.465-17.501c0.194-0.195 0.314-0.463 0.314-0.76s-0.12-0.566-0.315-0.761v0zM9.227 18.594l11.922-11.895 1.264 1.264-11.911 11.908zM8.337 20.747l2.809 2.809-3.69 0.885zM13.298 22.666l-1.276-1.276 11.909-11.909 1.264 1.264zM26.715 9.223l-4.044-4.044 2.588-2.581 4.039 4.039z"></path>
<path d="M27.312 15.197c-0.625 0-1.132 0.507-1.133 1.132v13.406h-23.914v-23.914h13.406c0.625 0 1.132-0.507 1.132-1.133s-0.507-1.133-1.133-1.133v0h-14.538c-0.625 0-1.132 0.507-1.133 1.132v26.179c0 0.625 0.507 1.132 1.132 1.133h26.179c0.625-0 1.132-0.507 1.133-1.132v-14.538c-0-0.625-0.507-1.132-1.132-1.133h-0z"></path>
</svg>
