<!-- Generated by IcoMoon.io -->
<svg version="1.1" xmlns="http://www.w3.org/2000/svg" width="32" height="32" viewBox="0 0 32 32">
<title>intervention</title>
<path d="M29.322 7.080c-0.164-0.234-0.433-0.385-0.736-0.385-0.219 0-0.419 0.078-0.575 0.209l0.001-0.001-4.248 3.634c-0.195 0.163-0.318 0.407-0.318 0.68 0 0.162 0.044 0.315 0.12 0.445l-0.002-0.004c0.741 1.246 1.18 2.747 1.18 4.351 0 0.941-0.151 1.847-0.43 2.695l0.017-0.061c-0.026 0.080-0.041 0.172-0.041 0.267 0 0.367 0.224 0.683 0.543 0.816l0.006 0.002 5.097 2.136c0.1 0.045 0.217 0.071 0.34 0.071 0.001 0 0.002 0 0.003 0h-0c0.128-0.001 0.249-0.027 0.36-0.073l-0.006 0.002c0.222-0.102 0.391-0.286 0.47-0.513l0.002-0.006c0.593-1.586 0.938-3.418 0.944-5.331v-0.002c0-0.004 0-0.009 0-0.014 0-3.327-1.019-6.417-2.761-8.973l0.035 0.055zM29.723 19.858l-3.54-1.463c0.178-0.708 0.282-1.522 0.283-2.359v-0.001c-0.001-1.671-0.393-3.25-1.089-4.651l0.027 0.061 2.926-2.501c1.194 2.031 1.899 4.473 1.9 7.079v0c0 0.029 0 0.063 0 0.097 0 1.322-0.185 2.601-0.532 3.812l0.024-0.098z"></path>
<path d="M17.794 7.445c1.65 0.354 3.080 1.135 4.216 2.221l-0.003-0.003c0.162 0.145 0.377 0.234 0.613 0.236h0c0.221-0 0.423-0.081 0.579-0.213l-0.001 0.001 4.212-3.599c0.18-0.156 0.297-0.382 0.307-0.635l0-0.002c0.001-0.015 0.001-0.032 0.001-0.050 0-0.238-0.095-0.454-0.249-0.611l0 0c-2.449-2.513-5.71-4.225-9.358-4.711l-0.082-0.009c-0.029-0.003-0.063-0.005-0.098-0.005-0.229 0-0.438 0.082-0.6 0.219l0.001-0.001c-0.182 0.167-0.295 0.405-0.295 0.67 0 0.001 0 0.002 0 0.003v-0 5.617c0.001 0.442 0.326 0.808 0.75 0.873l0.005 0.001zM18.879 2.030c2.586 0.546 4.839 1.723 6.668 3.363l-0.013-0.012-2.903 2.466c-1.055-0.866-2.309-1.535-3.679-1.929l-0.073-0.018z"></path>
<path d="M29.499 22.726l-5.192-2.159c-0.102-0.045-0.221-0.072-0.346-0.072-0.302 0-0.569 0.154-0.725 0.387l-0.002 0.003c-1.59 2.326-4.23 3.832-7.221 3.832-4.816 0-8.72-3.904-8.72-8.72 0-4.579 3.53-8.334 8.017-8.692l0.031-0.002c0.452-0.044 0.802-0.421 0.802-0.881 0-0.001 0-0.003 0-0.004v0-5.534c0-0.001 0-0.003 0-0.004 0-0.249-0.104-0.473-0.271-0.632l-0-0c-0.156-0.157-0.372-0.253-0.61-0.253-0.034 0-0.068 0.002-0.102 0.006l0.004-0c-8.473 0.46-15.169 7.443-15.169 15.99 0 8.843 7.169 16.012 16.012 16.012 5.898 0 11.052-3.189 13.83-7.938l0.041-0.076c0.079-0.13 0.127-0.288 0.127-0.456 0-0.099-0.016-0.193-0.046-0.282l0.002 0.006c-0.080-0.234-0.244-0.421-0.455-0.529l-0.005-0.002zM16.024 30.23c-7.682-0.235-13.819-6.519-13.819-14.236 0-7.117 5.22-13.014 12.040-14.073l0.080-0.010v3.729c-5.046 0.82-8.852 5.146-8.852 10.361 0 5.793 4.696 10.49 10.49 10.49 3.365 0 6.36-1.585 8.28-4.048l0.018-0.023 3.54 1.487c-2.587 3.811-6.888 6.291-11.771 6.324l-0.005 0z"></path>
</svg>
