<!-- Generated by IcoMoon.io -->
<svg version="1.1" xmlns="http://www.w3.org/2000/svg" width="32" height="32" viewBox="0 0 32 32">
<title>report</title>
<path d="M17.362 0c-0.654 0-1.184 0.53-1.184 1.184v0 13.406c0 0.654 0.53 1.184 1.184 1.184v0h13.43c0.654 0 1.184-0.53 1.184-1.184v0c0 0 0 0 0-0 0-8.058-6.532-14.591-14.591-14.591-0.008 0-0.017 0-0.025 0h0.001zM18.546 13.406v-11.038c5.814 0.597 10.393 5.177 10.986 10.938l0.004 0.052z"></path>
<path d="M27.926 17.67h-13.596v-13.596c-0.001-0.345-0.146-0.656-0.378-0.876l-0.001-0.001c-0.217-0.194-0.504-0.312-0.82-0.312-0.037 0-0.073 0.002-0.109 0.005l0.005-0c-7.352 0.822-13.015 7.002-13.015 14.505 0 8.058 6.532 14.591 14.591 14.591 7.511 0 13.696-5.675 14.502-12.971l0.006-0.066c0.003-0.031 0.004-0.067 0.004-0.104 0-0.315-0.119-0.603-0.313-0.821l0.001 0.001c-0.219-0.22-0.521-0.355-0.856-0.355-0.007 0-0.014 0-0.022 0h0.001zM14.591 29.631c-0.003 0-0.006 0-0.009 0-6.75 0-12.222-5.472-12.222-12.222 0-5.822 4.070-10.692 9.52-11.922l0.082-0.016v13.477c0.013 0.649 0.536 1.171 1.183 1.184l0.001 0h13.383c-1.266 5.477-6.102 9.498-11.877 9.498-0.021 0-0.043-0-0.064-0h0.003z"></path>
</svg>
