<!-- Generated by IcoMoon.io -->
<svg version="1.1" xmlns="http://www.w3.org/2000/svg" width="34" height="32" viewBox="0 0 34 32">
<title>star</title>
<path d="M6.989 32c-0.192-0.002-0.369-0.063-0.516-0.165l0.003 0.002c-0.22-0.161-0.361-0.418-0.361-0.708 0-0.050 0.004-0.1 0.012-0.148l-0.001 0.005 1.806-10.484-7.665-7.467c-0.164-0.159-0.265-0.381-0.265-0.627 0-0.436 0.32-0.798 0.738-0.863l0.005-0.001 10.554-1.538 4.718-9.564c0.161-0.267 0.45-0.443 0.78-0.443s0.619 0.176 0.778 0.439l0.002 0.004 4.73 9.564 10.542 1.538c0.335 0.048 0.606 0.279 0.709 0.588l0.002 0.006c0.026 0.080 0.041 0.172 0.041 0.268 0 0.246-0.1 0.469-0.263 0.629l-0 0-7.642 7.444 1.806 10.484c0.008 0.045 0.013 0.096 0.013 0.148 0 0.483-0.391 0.874-0.874 0.874-0.15 0-0.29-0.038-0.413-0.104l0.005 0.002-9.436-4.963-9.436 4.962c-0.108 0.060-0.234 0.102-0.368 0.116l-0.004 0zM16.833 25.080c0.15 0 0.29 0.039 0.412 0.107l-0.004-0.002 8.283 4.345-1.584-9.214c-0.008-0.043-0.012-0.093-0.012-0.144 0-0.246 0.103-0.468 0.268-0.625l0-0 6.687-6.535-9.284-1.363c-0.274-0.049-0.501-0.218-0.627-0.45l-0.002-0.005-4.135-8.387-4.135 8.387c-0.13 0.254-0.372 0.434-0.659 0.477l-0.005 0.001-9.284 1.34 6.698 6.535c0.165 0.157 0.268 0.379 0.268 0.625 0 0.051-0.004 0.101-0.013 0.149l0.001-0.005-1.549 9.214 8.271-4.345c0.108-0.060 0.235-0.099 0.371-0.105l0.002-0z"></path>
</svg>
