<svg id="Camada_1" data-name="Camada 1" xmlns="http://www.w3.org/2000/svg" viewBox="0 0 12 12"><path d="M10.24.51S6.77.49,6.29.5h-.8a3,3,0,0,0-3.32,3C2.17,5,3.06,6,4.9,6.71c1.31.53,1.56,1,1.56,1.65,0,.85-.6,1.35-1.61,1.35,0,0-2.6,0-3.42,0-.08,0-.19,0-.19.14v.43a.14.14,0,0,0,.13.15c.84.05,2.69,0,3.31,0h.17A2.1,2.1,0,0,0,7.2,8.36c0-.78-.24-1.6-2-2.32-1.57-.59-2.27-1.36-2.27-2.5A2.36,2.36,0,0,1,5.49,1.2l1.58,0a.19.19,0,0,1,.14.17.16.16,0,0,1-.14.17c-.05,0-1.09,0-1.5,0A2,2,0,0,0,3.41,3.39c0,1.17.77,1.72,2.11,2.26C7.1,6.29,7.71,7,7.71,8.26s-.77,2.52-2.95,2.52c-.42,0-1.93,0-3.4,0a.14.14,0,0,0-.15.13l0,.45a.14.14,0,0,0,.14.14c1.48.06,3,0,3.43,0a3.85,3.85,0,0,0,2.76-1,3.09,3.09,0,0,0,.93-2.27c0-1.54-.79-2.52-2.64-3.27-1.27-.52-1.66-.9-1.66-1.6,0-.53.37-1.08,1.41-1.14l4.68,0a.59.59,0,0,0,.6-.58V1.09A.59.59,0,0,0,10.24.51ZM8.93,1.72H8.05V1h.88Zm1.41-.1a.11.11,0,0,1-.1.1H9.47V1h.77a.1.1,0,0,1,.1.1Z"/></svg>