<!-- Generated by IcoMoon.io -->
<svg version="1.1" xmlns="http://www.w3.org/2000/svg" width="26" height="32" viewBox="0 0 26 32">
<title>user</title>
<path d="M13.172 32c-0.233 0.011-0.507 0.017-0.782 0.017-4.68 0-8.936-1.812-12.106-4.773l0.010 0.009c-0.186-0.22-0.298-0.506-0.298-0.819 0-0.032 0.001-0.063 0.003-0.094l-0 0.004c-0.006-0.16-0.009-0.347-0.009-0.536 0-5.595 2.891-10.516 7.26-13.349l0.062-0.038c-1.133-1.309-1.828-3.025-1.84-4.903v-0.003c0.476-3.748 3.645-6.617 7.483-6.617s7.007 2.869 7.479 6.579l0.004 0.037c-0.001 1.882-0.698 3.601-1.847 4.914l0.007-0.009c4.431 2.871 7.322 7.791 7.322 13.386 0 0.188-0.003 0.376-0.010 0.563l0.001-0.027c0 0.283-0.094 0.543-0.252 0.753l0.002-0.003c-2.951 3.016-7.063 4.886-11.611 4.886-0.118 0-0.235-0.001-0.352-0.004l0.017 0zM2.271 25.891c2.784 2.393 6.433 3.85 10.423 3.85 0.368 0 0.733-0.012 1.095-0.037l-0.049 0.003c0.095 0.002 0.207 0.004 0.319 0.004 3.736 0 7.138-1.434 9.683-3.783l-0.010 0.009c0.003-0.104 0.005-0.227 0.005-0.35 0-5.183-3.009-9.664-7.376-11.789l-0.078-0.034c-0.383-0.145-0.659-0.49-0.704-0.904l-0-0.005c-0.004-0.034-0.006-0.075-0.006-0.115 0-0.389 0.189-0.735 0.479-0.95l0.003-0.002c1.354-0.966 2.226-2.532 2.226-4.301 0-2.91-2.359-5.269-5.269-5.269s-5.269 2.359-5.269 5.269c0 1.769 0.872 3.335 2.21 4.29l0.016 0.011c0.281 0.222 0.46 0.564 0.46 0.947 0 0.043-0.002 0.085-0.007 0.126l0-0.005c-0.045 0.419-0.321 0.763-0.697 0.906l-0.008 0.002c-4.444 2.166-7.452 6.65-7.452 11.837 0 0.102 0.001 0.204 0.003 0.306l-0-0.015z"></path>
</svg>
