<svg xmlns="http://www.w3.org/2000/svg" xmlns:xlink="http://www.w3.org/1999/xlink" viewBox="0 0 363.42 231.93"><defs><style>.cls-1{fill:#fff;}.cls-2{fill:url(#Gradiente_sem_nome_2);}</style><linearGradient id="Gradiente_sem_nome_2" x1="125.34" y1="59.01" x2="238.58" y2="59.01" gradientUnits="userSpaceOnUse"><stop offset="0" stop-color="#5cbada"/><stop offset="1" stop-color="#77c694"/></linearGradient></defs><title>logo</title><g id="Layer_2" data-name="Layer 2"><g id="Camada_1" data-name="Camada 1"><path class="cls-1" d="M9.4,231.36a7.51,7.51,0,0,1-3.06.55c-3.27,0-5.72-2.06-5.72-5.86A5.76,5.76,0,0,1,6.67,220a6.27,6.27,0,0,1,2.74.51l-.36,1.22a5.47,5.47,0,0,0-2.33-.48C4,221.22,2.2,223,2.2,226c0,2.83,1.63,4.66,4.45,4.66a5.85,5.85,0,0,0,2.44-.49Z"/><path class="cls-1" d="M18.77,220.16V227c0,2.6,1.16,3.7,2.7,3.7,1.72,0,2.82-1.14,2.82-3.7v-6.85H25.8v6.75c0,3.56-1.87,5-4.38,5s-4.16-1.36-4.16-5v-6.82Z"/><path class="cls-1" d="M35.9,220.16v11.58H34.4V220.16Z"/><path class="cls-1" d="M44.52,220.31a21,21,0,0,1,3.18-.24,6.64,6.64,0,0,1,4.69,1.44A5.35,5.35,0,0,1,54,225.67a6.12,6.12,0,0,1-1.66,4.5,7.11,7.11,0,0,1-5.12,1.67,23.22,23.22,0,0,1-2.72-.14ZM46,230.55a9.1,9.1,0,0,0,1.51.09c3.19,0,4.93-1.79,4.93-4.92,0-2.73-1.53-4.46-4.69-4.46a9,9,0,0,0-1.75.15Z"/><path class="cls-1" d="M63.6,228.09l-1.2,3.65H60.86l3.93-11.58h1.8l4,11.58H69l-1.24-3.65Zm3.8-1.16-1.13-3.34c-.26-.75-.43-1.44-.6-2.11h0c-.17.69-.36,1.39-.58,2.1l-1.14,3.35Z"/><path class="cls-1" d="M78.26,231.74V220.16h1.63L83.6,226a31.71,31.71,0,0,1,2.08,3.76l0,0c-.13-1.55-.17-2.95-.17-4.76v-4.84H87v11.58H85.44l-3.68-5.88A36,36,0,0,1,79.6,222h0c.08,1.46.12,2.86.12,4.78v5Z"/><path class="cls-1" d="M95.57,220.31a21,21,0,0,1,3.18-.24,6.64,6.64,0,0,1,4.69,1.44,5.35,5.35,0,0,1,1.63,4.16,6.08,6.08,0,0,1-1.67,4.5,7.08,7.08,0,0,1-5.12,1.67,23.16,23.16,0,0,1-2.71-.14Zm1.49,10.24a9.31,9.31,0,0,0,1.52.09c3.19,0,4.93-1.79,4.93-4.92,0-2.73-1.53-4.46-4.69-4.46a9.08,9.08,0,0,0-1.76.15Z"/><path class="cls-1" d="M122.92,225.83c0,4-2.43,6.1-5.38,6.1s-5.21-2.37-5.21-5.88c0-3.68,2.29-6.08,5.38-6.08S122.92,222.39,122.92,225.83Zm-9,.19c0,2.47,1.34,4.69,3.7,4.69s3.71-2.19,3.71-4.81c0-2.31-1.21-4.71-3.7-4.71S113.93,223.47,113.93,226Z"/><path class="cls-1" d="M140.52,220.31a21,21,0,0,1,3.18-.24,6.64,6.64,0,0,1,4.69,1.44,5.35,5.35,0,0,1,1.63,4.16,6.12,6.12,0,0,1-1.66,4.5,7.11,7.11,0,0,1-5.12,1.67,23.22,23.22,0,0,1-2.72-.14Zm1.5,10.24a9.1,9.1,0,0,0,1.51.09c3.19,0,4.93-1.79,4.93-4.92,0-2.73-1.53-4.46-4.69-4.46a9,9,0,0,0-1.75.15Z"/><path class="cls-1" d="M167.87,225.83c0,4-2.42,6.1-5.38,6.1s-5.21-2.37-5.21-5.88c0-3.68,2.29-6.08,5.38-6.08S167.87,222.39,167.87,225.83Zm-9,.19c0,2.47,1.34,4.69,3.7,4.69s3.71-2.19,3.71-4.81c0-2.31-1.2-4.71-3.7-4.71S158.88,223.47,158.88,226Z"/><path class="cls-1" d="M175.61,229.92a5.32,5.32,0,0,0,2.68.75c1.53,0,2.43-.81,2.43-2s-.62-1.7-2.19-2.31c-1.89-.67-3.06-1.65-3.06-3.28,0-1.8,1.5-3.14,3.75-3.14a5.17,5.17,0,0,1,2.56.57l-.41,1.21a4.71,4.71,0,0,0-2.2-.54c-1.58,0-2.18.94-2.18,1.73,0,1.08.7,1.62,2.3,2.23,2,.76,3,1.7,3,3.41s-1.32,3.33-4.05,3.33a6,6,0,0,1-3-.74Z"/><path class="cls-1" d="M200,220.29a17.43,17.43,0,0,1,2.87-.22,4.76,4.76,0,0,1,3.25,1,3.13,3.13,0,0,1,1,2.43,3.43,3.43,0,0,1-.89,2.47,4.81,4.81,0,0,1-3.54,1.27,5.43,5.43,0,0,1-1.2-.1v4.64H200Zm1.5,5.59a5.2,5.2,0,0,0,1.23.12c1.81,0,2.91-.88,2.91-2.48s-1.09-2.26-2.74-2.26a6.08,6.08,0,0,0-1.4.12Z"/><path class="cls-1" d="M215.53,228.09l-1.2,3.65h-1.55l3.94-11.58h1.8l3.95,11.58h-1.59l-1.24-3.65Zm3.8-1.16-1.14-3.34c-.25-.75-.43-1.44-.6-2.11h0c-.17.69-.36,1.39-.59,2.1l-1.13,3.35Z"/><path class="cls-1" d="M238,231.36a7.51,7.51,0,0,1-3.06.55c-3.27,0-5.72-2.06-5.72-5.86a5.75,5.75,0,0,1,6-6.08,6.29,6.29,0,0,1,2.75.51l-.36,1.22a5.47,5.47,0,0,0-2.33-.48c-2.72,0-4.52,1.74-4.52,4.78,0,2.83,1.63,4.66,4.45,4.66a5.85,5.85,0,0,0,2.44-.49Z"/><path class="cls-1" d="M247.39,220.16v11.58H245.9V220.16Z"/><path class="cls-1" d="M262,226.31h-4.5v4.17h5v1.26H256V220.16h6.25v1.25h-4.76v3.66H262Z"/><path class="cls-1" d="M270.48,231.74V220.16h1.63l3.71,5.86a31.71,31.71,0,0,1,2.08,3.76l0,0c-.13-1.55-.17-2.95-.17-4.76v-4.84h1.41v11.58h-1.51L274,225.86a37.83,37.83,0,0,1-2.16-3.86h-.05c.08,1.46.12,2.86.12,4.78v5Z"/><path class="cls-1" d="M290,221.43h-3.52v-1.27H295v1.27H291.5v10.31H290Z"/><path class="cls-1" d="M308.34,226.31h-4.5v4.17h5v1.26h-6.51V220.16h6.25v1.25h-4.75v3.66h4.5Z"/><path class="cls-1" d="M316.6,229.92a5.32,5.32,0,0,0,2.68.75c1.53,0,2.42-.81,2.42-2s-.62-1.7-2.18-2.31c-1.89-.67-3.06-1.65-3.06-3.28,0-1.8,1.49-3.14,3.75-3.14a5.12,5.12,0,0,1,2.55.57l-.41,1.21a4.71,4.71,0,0,0-2.2-.54c-1.58,0-2.18.94-2.18,1.73,0,1.08.71,1.62,2.3,2.23,2,.76,3,1.7,3,3.41s-1.32,3.33-4.06,3.33a6,6,0,0,1-2.95-.74Z"/><path class="cls-1" d="M37,161.51a19.79,19.79,0,0,0-6.64-4.72,21,21,0,0,0-8.56-1.72,27.7,27.7,0,0,0-4.08.33,20.77,20.77,0,0,0-4.61,1.31,20.37,20.37,0,0,0-4.55,2.66l-.38.31v-.23a3.33,3.33,0,0,0-.86-2.3,3.21,3.21,0,0,0-2.48-1.05H3.38A3.43,3.43,0,0,0,1,157a3.24,3.24,0,0,0-1,2.48v33.48a3.7,3.7,0,0,0,0,.6v10a3,3,0,0,0,3.16,3.17H5.14a3,3,0,0,0,3.08-3.17V175.87a11.75,11.75,0,0,1,1.25-5,13.47,13.47,0,0,1,3-4,14.12,14.12,0,0,1,4.26-2.58,13.34,13.34,0,0,1,10.23.2,12.29,12.29,0,0,1,4,3,13.68,13.68,0,0,1,2.56,4.27,16.11,16.11,0,0,1,1,4.93v26.5a3.8,3.8,0,0,0,.73,2.45A3.23,3.23,0,0,0,38,206.72h1.35a3.43,3.43,0,0,0,2.48-1,3.61,3.61,0,0,0,1-2.62V176.76a23.45,23.45,0,0,0-1.49-8.35A21.67,21.67,0,0,0,37,161.51Z"/><path class="cls-1" d="M94.19,168.22a26.77,26.77,0,0,0-4.13-5.31,27.45,27.45,0,0,0-5.32-4.1,26,26,0,0,0-26.38,0,26.47,26.47,0,0,0-12.07,15.68,26.24,26.24,0,0,0,0,13.92,26.56,26.56,0,0,0,12.07,15.68,26.41,26.41,0,0,0,6.25,2.65,26.09,26.09,0,0,0,13.88,0,26.41,26.41,0,0,0,6.25-2.65A27.71,27.71,0,0,0,90.06,200a26,26,0,0,0,6.78-11.58,25.93,25.93,0,0,0,0-13.91A26.38,26.38,0,0,0,94.19,168.22ZM89.42,181.5a17.3,17.3,0,0,1-1.43,7,18.46,18.46,0,0,1-3.89,5.72,18.66,18.66,0,0,1-5.75,3.87,17.46,17.46,0,0,1-19.41-4,18.59,18.59,0,0,1-4.55-8,17.84,17.84,0,0,1,.78-11.65A19,19,0,0,1,59,168.66a18.09,18.09,0,0,1,5.71-3.94,17,17,0,0,1,6.92-1.43,16.45,16.45,0,0,1,6.87,1.46,18.38,18.38,0,0,1,5.67,4A18.84,18.84,0,0,1,88,174.55,17.68,17.68,0,0,1,89.42,181.5Z"/><path class="cls-1" d="M138.66,161.64A19.26,19.26,0,0,0,124,155.18a22.48,22.48,0,0,0-5.36.63,20.5,20.5,0,0,0-8.61,4.44V144.51a3,3,0,0,0-3.14-3.13h-2a3,3,0,0,0-3.13,3.13v59.16a3,3,0,0,0,3.16,3.16h2a3,3,0,0,0,3.1-3.16V175.8a11.46,11.46,0,0,1,1.29-5,13.48,13.48,0,0,1,3.12-3.92,14.38,14.38,0,0,1,4.37-2.52,12.86,12.86,0,0,1,9.93.2,12.06,12.06,0,0,1,3.77,3,13.92,13.92,0,0,1,2.45,4.28,16.27,16.27,0,0,1,1,5v26.46a3.82,3.82,0,0,0,.72,2.45,3.26,3.26,0,0,0,2.7,1.12h1.35a3.37,3.37,0,0,0,2.47-1,3.57,3.57,0,0,0,1-2.62V176.91a24.27,24.27,0,0,0-1.43-8.36A21.46,21.46,0,0,0,138.66,161.64Z"/><path class="cls-1" d="M196.8,156h-1.92a3,3,0,0,0-3.13,3.17v3.29l-.26-.25a25.4,25.4,0,0,0-5.07-3.83,24.66,24.66,0,0,0-5.91-2.42,25.62,25.62,0,0,0-13.38.09,26.39,26.39,0,0,0-6.26,2.68,27.51,27.51,0,0,0-5.3,4.12,27,27,0,0,0-4.11,5.3,25.95,25.95,0,0,0-2.68,20.14,26.16,26.16,0,0,0,2.65,6.24,26.49,26.49,0,0,0,4.13,5.31,27.79,27.79,0,0,0,5.31,4.12,25.67,25.67,0,0,0,13.2,3.62,24.78,24.78,0,0,0,12.36-3.25,24.45,24.45,0,0,0,5-3.8l.29-.29v3.14a3.19,3.19,0,0,0,3.42,3.31h1.52a3.61,3.61,0,0,0,2.07-.62,3,3,0,0,0,1.28-2.55V159.2A3,3,0,0,0,196.8,156Zm-16,42.07a17.15,17.15,0,0,1-13.76,0,18.42,18.42,0,0,1-5.62-4,19.27,19.27,0,0,1-3.79-5.85,18,18,0,0,1-1.38-6.92,16.88,16.88,0,0,1,1.42-6.83,19.45,19.45,0,0,1,3.88-5.77,18.91,18.91,0,0,1,5.66-3.95,16.15,16.15,0,0,1,6.78-1.44,17,17,0,0,1,6.81,1.48,19.22,19.22,0,0,1,5.75,4,19.52,19.52,0,0,1,4,5.78,16.73,16.73,0,0,1,1.45,6.84,17.1,17.1,0,0,1-1.44,7,18.52,18.52,0,0,1-9.71,9.73Z"/><path class="cls-1" d="M238.47,160.4a25.88,25.88,0,0,0-3-2,19.44,19.44,0,0,0-3.18-1.47,21,21,0,0,0-12.46-.34,18.13,18.13,0,0,0-4.24,2.06,18.56,18.56,0,0,0-1.9,1.44v-.43a3.34,3.34,0,0,0-.86-2.31,3.22,3.22,0,0,0-2.49-1h-2a2.87,2.87,0,0,0-3,3v44.32a3,3,0,0,0,3.21,3.13h1.95a3,3,0,0,0,3.17-3.13V176a13.42,13.42,0,0,1,.94-5.12,11.08,11.08,0,0,1,2.52-3.8,11.27,11.27,0,0,1,3.74-2.4,12.4,12.4,0,0,1,4.62-.86,7.52,7.52,0,0,1,1.83.25,14.34,14.34,0,0,1,2.09.72,19.29,19.29,0,0,1,2,1,13.37,13.37,0,0,1,1.6,1,7.08,7.08,0,0,0,1.32.78,2.77,2.77,0,0,0,3.11-.39,18.65,18.65,0,0,0,1.5-1.44,3.62,3.62,0,0,0,1.15-2.36,3.11,3.11,0,0,0-.8-2.1A7.7,7.7,0,0,0,238.47,160.4Z"/><path class="cls-1" d="M314,172.51a21.05,21.05,0,0,0-2-6.67,18.85,18.85,0,0,0-4.05-5.45,19.08,19.08,0,0,0-5.81-3.65,20.78,20.78,0,0,0-12.61-.67,18.35,18.35,0,0,0-4.91,2.05,17.39,17.39,0,0,0-4.12,3.45,16,16,0,0,0-1.23,1.59,19,19,0,0,0-4.92-4.8,18.54,18.54,0,0,0-10.55-3A19,19,0,0,0,259,156a16.87,16.87,0,0,0-4.12,1.73,18.29,18.29,0,0,0-2.84,2.08v-.41a3.41,3.41,0,0,0-.86-2.31,3.25,3.25,0,0,0-2.49-1h-1.52a3.7,3.7,0,0,0-2.2.7,3.07,3.07,0,0,0-1.22,2.54v44.28a3,3,0,0,0,3.2,3.17h1.92a3,3,0,0,0,3.14-3.17V193.38a3.08,3.08,0,0,0,0-.53V174.14a10.26,10.26,0,0,1,1.1-4.23,11.58,11.58,0,0,1,2.58-3.32,11.8,11.8,0,0,1,3.59-2.14,12.13,12.13,0,0,1,8.42,0,11.38,11.38,0,0,1,3.35,2.07,10.79,10.79,0,0,1,2.34,3,11.11,11.11,0,0,1,1.2,3.69,20.72,20.72,0,0,1,.22,2.24c0,.79.05,1.57.05,2.33v25.35a3.76,3.76,0,0,0,.74,2.46,3.25,3.25,0,0,0,2.69,1.11h1.4a3.39,3.39,0,0,0,2.48-1,3.57,3.57,0,0,0,1-2.62V177.8a30.34,30.34,0,0,1,.41-5,10.42,10.42,0,0,1,1.28-3.62,10.82,10.82,0,0,1,2.41-2.88,11,11,0,0,1,3.33-1.91,12.06,12.06,0,0,1,8.78.29,11.09,11.09,0,0,1,3.52,2.63,11.9,11.9,0,0,1,2.25,3.78,14.83,14.83,0,0,1,.91,4.38v27.72a3.88,3.88,0,0,0,.66,2.4,3.15,3.15,0,0,0,2.71,1.17h1.39a3.41,3.41,0,0,0,2.48-1,3.63,3.63,0,0,0,1-2.66V177.91c0-.88,0-1.76,0-2.65A24.65,24.65,0,0,0,314,172.51Z"/><path class="cls-1" d="M321.64,200.07h-.58a3.78,3.78,0,0,0-1.4.25,2.56,2.56,0,0,0-1.6,2.44v1.15a2.65,2.65,0,0,0,1.16,2.26,3.16,3.16,0,0,0,1.86.51h.9a2.58,2.58,0,0,0,2.41-1.5,3.65,3.65,0,0,0,.28-1.5v-.61a3.12,3.12,0,0,0-.65-2A3,3,0,0,0,321.64,200.07Z"/><path class="cls-1" d="M350.26,180.69h-.89a2.57,2.57,0,0,0-2.53,1.76c-.26-.17-.52-.34-.79-.5a12.61,12.61,0,0,0-3-1.24,13.12,13.12,0,0,0-6.87,0,12.77,12.77,0,0,0-3.2,1.37,13.79,13.79,0,0,0-4.8,4.8,13.37,13.37,0,0,0-1.37,3.2,13.4,13.4,0,0,0,0,7.11,13.49,13.49,0,0,0,3.47,5.91,14,14,0,0,0,2.7,2.09,13.25,13.25,0,0,0,6.76,1.86,12.92,12.92,0,0,0,6.35-1.67q.42-.24.81-.51a2.72,2.72,0,0,0,2.65,1.76h.7a2.92,2.92,0,0,0,1.66-.5A2.6,2.6,0,0,0,353,204V183.38A2.62,2.62,0,0,0,350.26,180.69Zm-3.46,13a6.66,6.66,0,0,1-.56,2.75,7.56,7.56,0,0,1-1.58,2.33,7.44,7.44,0,0,1-2.31,1.57,6.68,6.68,0,0,1-5.4,0,7.26,7.26,0,0,1-2.23-1.59,7.61,7.61,0,0,1-1.52-2.35,6.88,6.88,0,0,1-.55-2.74,6.49,6.49,0,0,1,.56-2.69,7.47,7.47,0,0,1,1.56-2.31,7.36,7.36,0,0,1,2.26-1.58,6.15,6.15,0,0,1,2.63-.56,6.49,6.49,0,0,1,2.68.58,7.57,7.57,0,0,1,2.3,1.59,7.66,7.66,0,0,1,1.59,2.32A6.48,6.48,0,0,1,346.8,193.69Z"/><path class="cls-1" d="M363.17,175.2a2.58,2.58,0,0,0-2.17-1.57h-1.73a2.62,2.62,0,0,0-2.08,1.48,3.4,3.4,0,0,0-.29,1.42v.88a2.56,2.56,0,0,0,1.18,2.23,3.2,3.2,0,0,0,1.79.46h.62a3,3,0,0,0,2-.64,2.8,2.8,0,0,0,.93-2.27v-.66A3.61,3.61,0,0,0,363.17,175.2Z"/><path class="cls-1" d="M360.61,180.72h-.91a2.61,2.61,0,0,0-2.7,2.69V204a2.62,2.62,0,0,0,2.73,2.69h.89A2.6,2.6,0,0,0,363.3,204V183.41A2.6,2.6,0,0,0,360.61,180.72Z"/><path class="cls-2" d="M183.73,51.94a26,26,0,1,1,26-26A26,26,0,0,1,183.73,51.94Zm0-43.12A17.15,17.15,0,1,0,200.88,26,17.16,17.16,0,0,0,183.73,8.82Zm41.5,39.35a44.14,44.14,0,0,0-7.16-6.44A4.27,4.27,0,0,0,212,43.06a.35.35,0,0,1-.05.08,4.28,4.28,0,0,0,1.07,5.8,35.41,35.41,0,0,1,5.63,5.1c10.57,11.86,11.75,29,10.89,36.34-.5,4.3-3.44,12.65-11.29,16.63-7,3.53-16.39,2.62-27.46-2.54,21.43-14.88,21.57-29.33,20.47-35.24-1.36-7.32-6.47-12.88-12.71-13.82A19.78,19.78,0,0,0,182,60.46a19.87,19.87,0,0,0-16.58-5.05c-6.24.94-11.35,6.5-12.71,13.82-1.1,5.91-1,20.36,20.48,35.24-11.07,5.16-20.5,6.07-27.46,2.54-7.86-4-10.8-12.33-11.3-16.63-.85-7.38.32-24.48,10.89-36.34a35.68,35.68,0,0,1,7.88-6.59,4.29,4.29,0,0,0,1.47-5.8.59.59,0,0,0,0-.08,4.3,4.3,0,0,0-6-1.71,45,45,0,0,0-9.9,8.31C126.07,62.34,124.54,82,125.63,91.39c.87,7.52,5.6,18.18,16.07,23.49A29.7,29.7,0,0,0,155.29,118c7.92,0,16.85-2.74,26.67-8.13,9.83,5.39,18.75,8.13,26.67,8.13a29.7,29.7,0,0,0,13.59-3.14c10.47-5.31,15.2-16,16.07-23.49C239.38,82,237.85,62.34,225.23,48.17ZM161.34,70.84c.74-4,3.26-6.39,5.36-6.71a11.85,11.85,0,0,1,11,4.56A4.43,4.43,0,0,0,179.52,71a4.27,4.27,0,0,0,2,.63,4.32,4.32,0,0,0,4.67-2.93,11.86,11.86,0,0,1,11-4.54c2.1.32,4.62,2.72,5.36,6.71.65,3.49.89,15.53-20.62,28.83C160.45,86.37,160.7,74.33,161.34,70.84Z"/></g></g></svg>