<svg width="364" height="232" viewBox="0 0 364 232" fill="none" xmlns="http://www.w3.org/2000/svg">
<g clip-path="url(#clip0_907_370)">
<path d="M37 161.51C35.1379 159.493 32.8767 157.886 30.36 156.79C27.6587 155.623 24.7423 155.037 21.8 155.07C20.4337 155.079 19.07 155.189 17.72 155.4C16.1379 155.657 14.5909 156.097 13.11 156.71C11.4845 157.396 9.95505 158.29 8.55998 159.37L8.17998 159.68V159.45C8.19676 158.602 7.88916 157.779 7.31998 157.15C7.00732 156.806 6.62362 156.534 6.19542 156.352C5.76721 156.171 5.30473 156.085 4.83998 156.1H3.37998C2.50059 156.084 1.64858 156.406 0.999975 157C0.666406 157.318 0.404647 157.704 0.232196 158.132C0.0597444 158.56 -0.0194266 159.019 -2.48142e-05 159.48L-2.48132e-05 192.96C-0.0162678 193.16 -0.0162678 193.36 -2.48142e-05 193.56L-2.48132e-05 203.56C-0.0246112 203.982 0.0402039 204.404 0.190175 204.799C0.340146 205.194 0.571889 205.553 0.870224 205.852C1.16856 206.152 1.52676 206.385 1.92135 206.536C2.31595 206.687 2.73804 206.753 3.15998 206.73H5.13998C5.55534 206.742 5.96862 206.667 6.35362 206.511C6.73862 206.354 7.08694 206.12 7.37651 205.822C7.66607 205.524 7.89057 205.169 8.03576 204.779C8.18096 204.39 8.24369 203.975 8.21998 203.56V175.87C8.26148 174.131 8.68842 172.424 9.46998 170.87C10.2116 169.361 11.2291 168.004 12.47 166.87C13.7259 165.764 15.1683 164.891 16.73 164.29C18.3644 163.648 20.1094 163.336 21.8649 163.37C23.6204 163.404 25.3519 163.785 26.96 164.49C28.4848 165.205 29.8463 166.226 30.96 167.49C32.0673 168.745 32.935 170.192 33.52 171.76C34.1094 173.341 34.4468 175.004 34.52 176.69V203.19C34.4731 204.066 34.731 204.932 35.25 205.64C35.5894 206.026 36.016 206.325 36.4943 206.513C36.9725 206.701 37.4887 206.772 38 206.72H39.35C39.8092 206.728 40.2654 206.643 40.6914 206.472C41.1174 206.3 41.5046 206.044 41.83 205.72C42.163 205.372 42.423 204.961 42.5948 204.511C42.7665 204.061 42.8465 203.581 42.83 203.1V176.76C42.845 173.909 42.3401 171.08 41.34 168.41C40.3428 165.856 38.8701 163.515 37 161.51Z" fill="#22395b"/>
<path d="M94.19 168.22C93.0421 166.283 91.6544 164.499 90.06 162.91C88.4612 161.331 86.6745 159.954 84.74 158.81C80.7426 156.457 76.1885 155.216 71.55 155.216C66.9114 155.216 62.3573 156.457 58.36 158.81C52.4609 162.28 48.135 167.899 46.29 174.49C45.0368 179.045 45.0368 183.855 46.29 188.41C48.1435 194.996 52.4672 200.613 58.36 204.09C60.3206 205.238 62.4213 206.129 64.61 206.74C69.1518 207.993 73.9482 207.993 78.49 206.74C80.6786 206.129 82.7793 205.238 84.74 204.09C86.6724 202.947 88.4589 201.574 90.06 200C93.2943 196.8 95.6322 192.807 96.84 188.42C98.1068 183.87 98.1068 179.06 96.84 174.51C96.2328 172.307 95.342 170.193 94.19 168.22ZM89.42 181.5C89.4356 183.907 88.9485 186.292 87.99 188.5C87.0653 190.635 85.7455 192.575 84.1 194.22C82.4418 195.858 80.4915 197.17 78.35 198.09C75.0905 199.469 71.4889 199.825 68.0225 199.111C64.5561 198.396 61.3886 196.645 58.94 194.09C56.7768 191.847 55.2121 189.096 54.39 186.09C53.3358 182.229 53.6106 178.126 55.17 174.44C56.0813 172.295 57.3796 170.335 59 168.66C60.6313 166.991 62.5703 165.653 64.71 164.72C66.891 163.764 69.2486 163.277 71.63 163.29C73.9984 163.276 76.3418 163.774 78.5 164.75C80.6268 165.711 82.5511 167.069 84.17 168.75C85.7953 170.429 87.0941 172.396 88 174.55C88.938 176.747 89.421 179.111 89.42 181.5Z" fill="#22395b"/>
<path d="M138.66 161.64C136.823 159.574 134.563 157.928 132.034 156.813C129.504 155.699 126.764 155.142 124 155.18C122.195 155.174 120.395 155.385 118.64 155.81C115.457 156.581 112.504 158.103 110.03 160.25V144.51C110.049 144.093 109.98 143.677 109.829 143.288C109.677 142.899 109.446 142.546 109.151 142.252C108.855 141.957 108.502 141.728 108.112 141.577C107.723 141.427 107.307 141.36 106.89 141.38H104.89C104.474 141.361 104.059 141.43 103.671 141.581C103.283 141.731 102.93 141.961 102.636 142.256C102.341 142.55 102.111 142.902 101.961 143.291C101.81 143.679 101.742 144.094 101.76 144.51V203.67C101.737 204.091 101.803 204.512 101.953 204.906C102.104 205.3 102.336 205.658 102.634 205.956C102.932 206.254 103.29 206.486 103.684 206.636C104.078 206.787 104.499 206.853 104.92 206.83H106.92C107.336 206.844 107.751 206.772 108.137 206.618C108.524 206.463 108.874 206.23 109.166 205.933C109.458 205.635 109.684 205.281 109.831 204.891C109.978 204.502 110.042 204.086 110.02 203.67V175.8C110.064 174.057 110.505 172.347 111.31 170.8C112.096 169.31 113.154 167.98 114.43 166.88C115.727 165.789 117.206 164.936 118.8 164.36C120.386 163.733 122.08 163.428 123.785 163.463C125.49 163.497 127.171 163.87 128.73 164.56C130.176 165.296 131.458 166.316 132.5 167.56C133.565 168.829 134.395 170.279 134.95 171.84C135.544 173.444 135.882 175.131 135.95 176.84V203.3C135.902 204.175 136.156 205.04 136.67 205.75C137.002 206.134 137.419 206.435 137.887 206.629C138.356 206.824 138.864 206.906 139.37 206.87H140.72C141.178 206.88 141.633 206.796 142.058 206.624C142.483 206.452 142.868 206.196 143.19 205.87C143.525 205.523 143.786 205.112 143.958 204.662C144.13 204.212 144.209 203.731 144.19 203.25V176.91C144.208 174.061 143.724 171.231 142.76 168.55C141.841 166.009 140.45 163.665 138.66 161.64Z" fill="#22395b"/>
<path d="M196.8 156H194.88C194.46 155.981 194.042 156.05 193.651 156.204C193.26 156.357 192.905 156.59 192.61 156.889C192.315 157.188 192.086 157.545 191.938 157.938C191.79 158.331 191.726 158.751 191.75 159.17V162.46L191.49 162.21C189.967 160.726 188.264 159.439 186.42 158.38C184.563 157.321 182.577 156.507 180.51 155.96C176.121 154.804 171.503 154.835 167.13 156.05C164.936 156.669 162.832 157.57 160.87 158.73C158.942 159.882 157.162 161.265 155.57 162.85C153.985 164.439 152.604 166.219 151.46 168.15C149.681 171.154 148.527 174.486 148.067 177.947C147.606 181.407 147.849 184.925 148.78 188.29C149.389 190.476 150.28 192.574 151.43 194.53C152.575 196.468 153.963 198.253 155.56 199.84C157.157 201.423 158.94 202.807 160.87 203.96C164.861 206.339 169.423 207.59 174.07 207.58C178.403 207.596 182.665 206.475 186.43 204.33C188.253 203.283 189.934 202.006 191.43 200.53L191.72 200.24V203.38C191.702 203.829 191.779 204.277 191.946 204.694C192.113 205.111 192.366 205.488 192.689 205.801C193.012 206.113 193.397 206.354 193.819 206.507C194.242 206.66 194.692 206.723 195.14 206.69H196.66C197.397 206.699 198.119 206.483 198.73 206.07C199.138 205.785 199.469 205.402 199.693 204.957C199.916 204.512 200.025 204.018 200.01 203.52V159.2C200.04 158.771 199.977 158.341 199.826 157.939C199.675 157.536 199.44 157.171 199.135 156.867C198.831 156.564 198.465 156.33 198.062 156.18C197.659 156.03 197.229 155.969 196.8 156ZM180.8 198.07C178.631 199.02 176.288 199.51 173.92 199.51C171.552 199.51 169.209 199.02 167.04 198.07C164.931 197.102 163.025 195.745 161.42 194.07C159.812 192.367 158.527 190.384 157.63 188.22C156.718 186.027 156.249 183.675 156.25 181.3C156.243 178.949 156.726 176.623 157.67 174.47C158.606 172.329 159.921 170.375 161.55 168.7C163.178 167.047 165.097 165.708 167.21 164.75C169.339 163.785 171.652 163.294 173.99 163.31C176.338 163.328 178.657 163.832 180.8 164.79C182.945 165.76 184.894 167.116 186.55 168.79C188.222 170.459 189.577 172.417 190.55 174.57C191.51 176.722 192.004 179.053 192 181.41C192.018 183.819 191.528 186.204 190.56 188.41C188.691 192.779 185.215 196.262 180.85 198.14L180.8 198.07Z" fill="#22395b"/>
<path d="M238.47 160.4C237.518 159.664 236.515 158.996 235.47 158.4C234.456 157.815 233.392 157.323 232.29 156.93C228.267 155.558 223.922 155.44 219.83 156.59C218.333 157.089 216.908 157.782 215.59 158.65C214.926 159.089 214.292 159.57 213.69 160.09V159.66C213.708 158.809 213.401 157.982 212.83 157.35C212.511 157.014 212.124 156.751 211.694 156.578C211.264 156.406 210.802 156.328 210.34 156.35H208.34C207.941 156.331 207.543 156.396 207.17 156.541C206.798 156.685 206.46 156.905 206.177 157.187C205.895 157.47 205.675 157.808 205.531 158.18C205.386 158.553 205.321 158.951 205.34 159.35V203.67C205.321 204.093 205.391 204.515 205.546 204.909C205.702 205.303 205.939 205.66 206.242 205.955C206.546 206.251 206.908 206.479 207.306 206.625C207.703 206.77 208.128 206.83 208.55 206.8H210.5C210.919 206.824 211.339 206.76 211.732 206.612C212.125 206.464 212.482 206.235 212.781 205.94C213.08 205.645 213.313 205.29 213.466 204.899C213.619 204.508 213.689 204.089 213.67 203.67V176C213.646 174.248 213.965 172.509 214.61 170.88C215.177 169.452 216.036 168.158 217.13 167.08C218.205 166.04 219.476 165.224 220.87 164.68C222.341 164.101 223.909 163.81 225.49 163.82C226.108 163.828 226.723 163.912 227.32 164.07C228.034 164.256 228.733 164.497 229.41 164.79C230.095 165.084 230.763 165.418 231.41 165.79C231.966 166.085 232.501 166.419 233.01 166.79C233.42 167.097 233.863 167.359 234.33 167.57C234.827 167.827 235.39 167.927 235.945 167.857C236.501 167.788 237.022 167.551 237.44 167.18C237.966 166.728 238.467 166.248 238.94 165.74C239.605 165.125 240.015 164.283 240.09 163.38C240.094 162.605 239.809 161.856 239.29 161.28C239.04 160.966 238.766 160.671 238.47 160.4Z" fill="#22395b"/>
<path d="M314 172.51C313.708 170.191 313.032 167.937 312 165.84C310.991 163.793 309.619 161.947 307.95 160.39C306.25 158.832 304.281 157.596 302.14 156.74C298.108 155.214 293.701 154.98 289.53 156.07C287.802 156.511 286.148 157.202 284.62 158.12C283.076 159.05 281.686 160.213 280.5 161.57C280.057 162.074 279.646 162.605 279.27 163.16C277.935 161.274 276.268 159.648 274.35 158.36C271.216 156.319 267.539 155.273 263.8 155.36C262.179 155.368 260.566 155.583 259 156C257.556 156.391 256.171 156.973 254.88 157.73C253.869 158.33 252.918 159.027 252.04 159.81V159.4C252.051 158.55 251.745 157.726 251.18 157.09C250.86 156.756 250.472 156.493 250.043 156.321C249.614 156.149 249.152 156.07 248.69 156.09H247.17C246.381 156.083 245.61 156.328 244.97 156.79C244.579 157.085 244.264 157.47 244.051 157.912C243.839 158.354 243.736 158.84 243.75 159.33V203.61C243.725 204.035 243.791 204.461 243.943 204.859C244.095 205.257 244.331 205.618 244.633 205.918C244.936 206.218 245.299 206.45 245.699 206.599C246.098 206.747 246.525 206.809 246.95 206.78H248.87C249.29 206.8 249.71 206.732 250.102 206.58C250.495 206.427 250.85 206.194 251.146 205.895C251.443 205.596 251.672 205.238 251.821 204.844C251.97 204.451 252.034 204.03 252.01 203.61V193.38C252.025 193.204 252.025 193.026 252.01 192.85V174.14C252.069 172.667 252.444 171.225 253.11 169.91C253.76 168.655 254.635 167.53 255.69 166.59C256.75 165.669 257.966 164.944 259.28 164.45C261.997 163.445 264.983 163.445 267.7 164.45C268.928 164.94 270.062 165.641 271.05 166.52C272.002 167.373 272.794 168.389 273.39 169.52C274.003 170.67 274.41 171.919 274.59 173.21C274.704 173.952 274.777 174.7 274.81 175.45C274.81 176.24 274.86 177.02 274.86 177.78V203.13C274.81 204.011 275.072 204.882 275.6 205.59C275.931 205.971 276.347 206.27 276.814 206.463C277.281 206.656 277.786 206.737 278.29 206.7H279.69C280.15 206.71 280.606 206.627 281.033 206.455C281.459 206.283 281.846 206.026 282.17 205.7C282.505 205.353 282.766 204.943 282.938 204.492C283.11 204.042 283.189 203.562 283.17 203.08V177.8C283.168 176.125 283.306 174.452 283.58 172.8C283.779 171.524 284.213 170.297 284.86 169.18C285.489 168.087 286.305 167.112 287.27 166.3C288.259 165.473 289.387 164.827 290.6 164.39C293.459 163.379 296.594 163.483 299.38 164.68C300.717 165.313 301.914 166.207 302.9 167.31C303.878 168.419 304.641 169.701 305.15 171.09C305.673 172.496 305.98 173.972 306.06 175.47V203.19C306.01 204.041 306.242 204.884 306.72 205.59C307.042 205.992 307.457 206.308 307.929 206.512C308.402 206.716 308.917 206.801 309.43 206.76H310.82C311.279 206.769 311.736 206.685 312.162 206.513C312.588 206.341 312.975 206.085 313.3 205.76C313.637 205.407 313.899 204.989 314.071 204.532C314.243 204.075 314.321 203.588 314.3 203.1V177.91C314.3 177.03 314.3 176.15 314.3 175.26C314.252 174.338 314.151 173.42 314 172.51Z" fill="#22395b"/>
<path d="M321.64 200.07H321.06C320.582 200.064 320.107 200.149 319.66 200.32C319.177 200.515 318.764 200.854 318.478 201.29C318.192 201.726 318.046 202.239 318.06 202.76V203.91C318.049 204.354 318.149 204.793 318.351 205.188C318.554 205.583 318.853 205.921 319.22 206.17C319.772 206.53 320.422 206.708 321.08 206.68H321.98C322.484 206.693 322.981 206.558 323.41 206.291C323.838 206.025 324.179 205.638 324.39 205.18C324.588 204.705 324.683 204.194 324.67 203.68V203.07C324.691 202.348 324.462 201.641 324.02 201.07C323.723 200.737 323.355 200.474 322.943 200.301C322.531 200.128 322.086 200.049 321.64 200.07Z" fill="#22395b"/>
<path d="M350.26 180.69H349.37C348.815 180.671 348.268 180.831 347.812 181.149C347.356 181.466 347.015 181.923 346.84 182.45C346.58 182.28 346.32 182.11 346.05 181.95C345.108 181.409 344.099 180.992 343.05 180.71C340.801 180.1 338.429 180.1 336.18 180.71C335.056 181.019 333.979 181.479 332.98 182.08C331.005 183.255 329.355 184.905 328.18 186.88C327.586 187.882 327.125 188.958 326.81 190.08C326.17 192.407 326.17 194.863 326.81 197.19C327.439 199.426 328.634 201.462 330.28 203.1C331.091 203.904 331.998 204.606 332.98 205.19C335.025 206.406 337.361 207.048 339.74 207.05C341.965 207.05 344.152 206.474 346.09 205.38C346.37 205.22 346.64 205.05 346.9 204.87C347.101 205.404 347.465 205.862 347.941 206.178C348.417 206.494 348.979 206.652 349.55 206.63H350.25C350.841 206.635 351.42 206.461 351.91 206.13C352.249 205.888 352.525 205.569 352.715 205.198C352.904 204.827 353.002 204.416 353 204V183.38C353.01 183.02 352.946 182.661 352.811 182.327C352.676 181.993 352.474 181.69 352.216 181.438C351.959 181.185 351.653 180.989 351.316 180.86C350.98 180.731 350.62 180.673 350.26 180.69ZM346.8 193.69C346.811 194.636 346.62 195.574 346.24 196.44C345.864 197.309 345.328 198.099 344.66 198.77C343.996 199.435 343.212 199.967 342.35 200.34C341.499 200.716 340.58 200.91 339.65 200.91C338.72 200.91 337.801 200.716 336.95 200.34C336.113 199.956 335.356 199.417 334.72 198.75C334.072 198.067 333.557 197.271 333.2 196.4C332.831 195.534 332.644 194.601 332.65 193.66C332.643 192.734 332.833 191.817 333.21 190.97C333.58 190.109 334.11 189.325 334.77 188.66C335.417 187.996 336.184 187.46 337.03 187.08C337.855 186.702 338.753 186.51 339.66 186.52C340.584 186.52 341.498 186.718 342.34 187.1C343.199 187.483 343.979 188.022 344.64 188.69C345.309 189.359 345.848 190.145 346.23 191.01C346.609 191.853 346.803 192.766 346.8 193.69Z" fill="#22395b"/>
<path d="M363.17 175.2C362.987 174.765 362.687 174.388 362.305 174.111C361.922 173.834 361.471 173.668 361 173.63H359.27C358.826 173.679 358.402 173.84 358.038 174.099C357.673 174.358 357.382 174.706 357.19 175.11C356.992 175.557 356.893 176.041 356.9 176.53V177.41C356.887 177.852 356.989 178.29 357.196 178.68C357.403 179.071 357.707 179.402 358.08 179.64C358.618 179.966 359.241 180.126 359.87 180.1H360.49C361.212 180.134 361.922 179.907 362.49 179.46C362.807 179.177 363.056 178.825 363.217 178.432C363.378 178.039 363.447 177.614 363.42 177.19V176.53C363.421 176.075 363.336 175.623 363.17 175.2Z" fill="#22395b"/>
<path d="M360.61 180.72H359.7C359.343 180.707 358.987 180.768 358.654 180.899C358.322 181.03 358.02 181.227 357.767 181.479C357.513 181.731 357.315 182.033 357.183 182.365C357.051 182.697 356.989 183.053 357 183.41V204C356.99 204.359 357.054 204.717 357.188 205.05C357.323 205.384 357.524 205.686 357.78 205.938C358.036 206.191 358.341 206.388 358.677 206.517C359.012 206.646 359.371 206.705 359.73 206.69H360.62C360.976 206.701 361.33 206.639 361.661 206.508C361.992 206.376 362.292 206.178 362.543 205.926C362.795 205.674 362.991 205.373 363.122 205.042C363.252 204.71 363.312 204.356 363.3 204V183.41C363.312 183.053 363.252 182.698 363.121 182.366C362.99 182.034 362.792 181.732 362.54 181.48C362.288 181.227 361.986 181.03 361.654 180.899C361.322 180.768 360.967 180.707 360.61 180.72Z" fill="#22395b"/>
<path d="M183.73 51.94C178.588 51.94 173.561 50.4151 169.285 47.5582C165.009 44.7012 161.677 40.6406 159.709 35.8897C157.741 31.1388 157.226 25.9111 158.23 20.8676C159.233 15.8241 161.709 11.1913 165.345 7.55518C168.981 3.91901 173.614 1.44275 178.658 0.439536C183.701 -0.56368 188.929 -0.0487932 193.68 1.91909C198.431 3.88696 202.491 7.21945 205.348 11.4951C208.205 15.7708 209.73 20.7976 209.73 25.94C209.73 29.3543 209.057 32.7353 207.751 35.8897C206.444 39.0442 204.529 41.9104 202.115 44.3247C199.7 46.7391 196.834 48.6542 193.68 49.9608C190.525 51.2674 187.144 51.94 183.73 51.94ZM183.73 8.81995C180.339 8.81996 177.025 9.82504 174.205 11.7082C171.385 13.5913 169.187 16.268 167.888 19.4C166.589 22.532 166.248 25.9788 166.907 29.3047C167.567 32.6307 169.197 35.6866 171.592 38.0862C173.988 40.4859 177.041 42.1216 180.366 42.7868C183.691 43.4519 187.138 43.1165 190.272 41.8231C193.406 40.5296 196.087 38.3361 197.975 35.5198C199.863 32.7034 200.874 29.3906 200.88 26C200.883 23.7456 200.441 21.5129 199.58 19.4293C198.72 17.3457 197.457 15.452 195.865 13.8566C194.272 12.2612 192.38 10.9952 190.298 10.131C188.216 9.26675 185.984 8.82127 183.73 8.81995ZM225.23 48.17C223.085 45.7686 220.684 43.6091 218.07 41.73C217.589 41.4018 217.047 41.1753 216.476 41.0644C215.904 40.9535 215.316 40.9605 214.748 41.0851C214.179 41.2096 213.643 41.4491 213.17 41.7887C212.697 42.1283 212.299 42.5609 212 43.06C211.987 43.0888 211.97 43.1157 211.95 43.14C211.351 44.0595 211.127 45.1742 211.326 46.2537C211.526 47.3331 212.132 48.2948 213.02 48.94C215.074 50.4332 216.962 52.143 218.65 54.04C229.22 65.9 230.4 83.04 229.54 90.38C229.04 94.68 226.1 103.03 218.25 107.01C211.25 110.54 201.86 109.63 190.79 104.47C212.22 89.59 212.36 75.14 211.26 69.23C209.9 61.91 204.79 56.35 198.55 55.41C195.589 54.9426 192.561 55.1544 189.693 56.0293C186.826 56.9041 184.196 58.4192 182 60.46C179.797 58.4205 177.161 56.9066 174.29 56.0319C171.418 55.1573 168.386 54.9446 165.42 55.41C159.18 56.35 154.07 61.91 152.71 69.23C151.61 75.14 151.71 89.59 173.19 104.47C162.12 109.63 152.69 110.54 145.73 107.01C137.87 103.01 134.93 94.68 134.43 90.38C133.58 83 134.75 65.9 145.32 54.04C147.615 51.4747 150.269 49.255 153.2 47.45C154.152 46.8651 154.838 45.9317 155.113 44.8485C155.388 43.7653 155.229 42.6178 154.67 41.65C154.672 41.6233 154.672 41.5966 154.67 41.57C154.4 41.0526 154.027 40.5957 153.574 40.2271C153.122 39.8584 152.599 39.5858 152.037 39.4258C151.476 39.2659 150.888 39.2218 150.309 39.2965C149.73 39.3711 149.172 39.5628 148.67 39.86C144.987 42.1391 141.653 44.938 138.77 48.17C126.07 62.34 124.54 82 125.63 91.39C126.5 98.91 131.23 109.57 141.7 114.88C145.918 116.984 150.577 118.053 155.29 118C163.21 118 172.14 115.26 181.96 109.87C191.79 115.26 200.71 118 208.63 118C213.345 118.047 218.003 116.971 222.22 114.86C232.69 109.55 237.42 98.86 238.29 91.37C239.38 82 237.85 62.34 225.23 48.17ZM161.34 70.84C162.08 66.84 164.6 64.45 166.7 64.13C168.773 63.8517 170.882 64.127 172.814 64.9279C174.746 65.7288 176.432 67.0268 177.7 68.69C178.026 69.6447 178.668 70.4597 179.52 71C180.124 71.3729 180.811 71.5895 181.52 71.63C182.518 71.7621 183.53 71.5417 184.383 71.0067C185.236 70.4718 185.875 69.6559 186.19 68.7C187.461 67.0412 189.148 65.7477 191.079 64.9505C193.011 64.1532 195.119 63.8805 197.19 64.16C199.29 64.48 201.81 66.88 202.55 70.87C203.2 74.36 203.44 86.4 181.93 99.7C160.45 86.37 160.7 74.33 161.34 70.84Z" fill="url(#paint0_linear_907_370)"/>
</g>
<defs>
<linearGradient id="paint0_linear_907_370" x1="125.34" y1="59.01" x2="238.58" y2="59.01" gradientUnits="userSpaceOnUse">
<stop stop-color="#5CBADA"/>
<stop offset="1" stop-color="#77C694"/>
</linearGradient>
<clipPath id="clip0_907_370">
<rect width="363.42" height="231.93" fill="#22395b"/>
</clipPath>
</defs>
</svg>
